<svg xmlns="http://www.w3.org/2000/svg" width="512" height="512" viewBox="0 0 512 512">
  <rect width="512" height="512" fill="#222730"/>
  <g transform="translate(-112.85,-29.03) scale(1.18)">
    <path fill="#FD7014" d="M458.01 178.78 L443.12 167.86 L439.48 161.24 L427.90 154.95 C425.59 153.96 423.27 153.63 420.96 153.96 L420.30 148.00 C419.97 145.68 418.97 143.37 417.32 142.04 L413.02 138.07 C412.03 137.08 410.37 136.75 409.05 137.41 L408.39 137.74 C408.06 138.07 407.40 138.40 407.07 138.73 C405.74 138.07 403.76 138.07 402.77 139.06 L402.10 139.40 C400.78 140.39 400.12 142.37 400.78 144.03 L404.09 152.97 C405.08 155.61 407.40 157.93 410.04 159.26 L411.37 159.92 C411.37 159.92 411.37 160.25 411.03 160.25 L401.11 183.09 C398.13 188.05 392.84 191.36 386.56 191.36 L384.90 191.36 L356.12 191.36 C307.17 191.36 267.14 231.08 267.14 280.40 L267.14 299.60 C267.14 318.46 251.93 333.36 233.40 333.36 L172.21 337.00 C167.91 337.00 164.60 340.31 164.60 344.61 L232.74 344.61 L244.65 344.61 C266.48 344.61 285.67 330.71 292.28 309.86 L298.24 291.65 C304.85 297.28 313.45 300.59 322.71 300.59 C324.70 300.59 326.68 300.59 328.67 300.26 L331.65 304.56 L331.65 317.47 L326.02 338.32 C325.36 341.30 327.68 344.28 330.98 344.28 L399.46 344.28 C399.46 342.63 398.80 341.30 397.80 340.31 L407.07 340.31 C407.07 338.65 406.40 337.33 405.41 336.34 C404.42 335.34 402.77 334.68 401.11 334.68 L395.82 334.68 L392.18 331.37 L356.45 331.37 C353.81 331.37 351.82 329.39 351.82 326.74 L351.82 298.60 L366.38 259.22 L388.87 246.31 L395.82 263.85 L395.82 291.32 C399.46 291.32 402.43 289.00 403.43 285.69 C406.73 284.70 409.38 281.72 409.38 278.08 L409.38 241.01 C409.38 238.36 409.71 235.71 410.04 233.07 C421.29 223.47 427.91 209.57 427.91 194.34 L427.91 192.69 C427.91 190.70 429.56 189.04 431.54 189.04 L441.14 189.04 L449.74 191.36 C451.72 192.02 453.71 191.03 454.70 189.38 L457.68 189.38 L459.33 185.73 C460.65 183.42 459.99 180.44 458.01 178.78 Z"/>
  </g>
</svg>
